Coordinates
version=1
nRows=21
nColumns=12
inDegrees=yes

Units are S.I. units (second, meters, Newtons, ...)
Angles are in degrees

endheader
time	SC_y	SC_z	SC_x	AC_y	AC_z	AC_x	GH_y	GH_z	GH_yy	EL_x	PS_y
       0.0              -11.43          12.09          20.42          42.46          1.957          -17.7         -37.93         -15.98          34.31          36.28          67.43
   0.03451              -11.43          12.09          20.43          42.47          1.954          -17.7         -37.91         -15.97          34.31          36.29          67.44
   0.06902              -11.43           12.1          20.43          42.47          1.952         -17.69         -37.88         -15.96          34.31           36.3          67.44
    0.1035              -11.43           12.1          20.43          42.48          1.949         -17.69         -37.85         -15.95           34.3          36.31          67.45
     0.138              -11.44           12.1          20.44          42.48          1.946         -17.69         -37.82         -15.94           34.3          36.32          67.45
    0.1726              -11.44           12.1          20.44          42.49          1.943         -17.69         -37.79         -15.92           34.3          36.33          67.46
    0.2071              -11.44          12.11          20.45          42.49          1.939         -17.68         -37.75         -15.91          34.29          36.34          67.47
    0.2416              -11.44          12.11          20.45           42.5          1.936         -17.68         -37.71          -15.9          34.29          36.35          67.47
    0.2761              -11.44          12.11          20.46           42.5          1.932         -17.67         -37.67         -15.88          34.28          36.36          67.48
    0.3106              -11.44          12.12          20.46          42.51          1.928         -17.67         -37.63         -15.86          34.28          36.38          67.49
    0.3451              -11.44          12.12          20.47          42.52          1.923         -17.67         -37.58         -15.85          34.27          36.39           67.5
    0.3796              -11.44          12.12          20.47          42.52          1.918         -17.66         -37.53         -15.83          34.26          36.41          67.51
    0.4141              -11.44          12.13          20.48          42.53          1.913         -17.66         -37.48         -15.81          34.26          36.42          67.52
    0.4486              -11.45          12.13          20.49          42.54          1.908         -17.65         -37.42         -15.79          34.25          36.44          67.53
    0.4831              -11.45          12.14           20.5          42.55          1.902         -17.64         -37.36         -15.76          34.24          36.46          67.54
    0.5177              -11.45          12.14           20.5          42.56          1.895         -17.64         -37.29         -15.74          34.23          36.48          67.56
    0.5522              -11.45          12.15          20.51          42.57          1.888         -17.63         -37.22         -15.71          34.22           36.5          67.57
    0.5867              -11.45          12.15          20.52          42.58           1.88         -17.62         -37.14         -15.68          34.21          36.53          67.59
    0.6212              -11.45          12.16          20.54           42.6          1.872         -17.62         -37.05         -15.64           34.2          36.56           67.6
    0.6557              -11.46          12.17          20.55          42.61          1.862         -17.61         -36.95         -15.61          34.19          36.59          67.62
    0.6902              -11.46          12.18          20.56          42.63          1.852          -17.6         -36.85         -15.57          34.18          36.62          67.64
